<?xml version="1.0" encoding="UTF-8"?>
<svg version="1.1" xmlns="http://www.w3.org/2000/svg" width="200" height="200">
<path d="M0 0 C66 0 132 0 200 0 C200 66 200 132 200 200 C134 200 68 200 0 200 C0 134 0 68 0 0 Z " fill="#FEFEFE" transform="translate(0,0)"/>
<path d="M0 0 C0.92232422 0.01804688 1.84464844 0.03609375 2.79492188 0.0546875 C5.05188733 0.10146399 7.30662612 0.16698129 9.5625 0.25 C8.84211617 6.87563553 7.07815834 13.14767803 5.3125 19.5625 C5.00038574 20.71298828 4.68827148 21.86347656 4.36669922 23.04882812 C2.95330691 28.2445481 1.51943101 33.43289783 0.0234375 38.60546875 C-2.15368985 46.15566932 -4.05532125 53.35163916 -4.4375 61.25 C-0.4775 59.6 3.4825 57.95 7.5625 56.25 C6.9025 55.92 6.2425 55.59 5.5625 55.25 C6.34057395 51.95342353 7.1657785 48.67063592 8.01464844 45.39160156 C8.41134036 43.84089676 8.79884178 42.28783133 9.18066406 40.73339844 C9.86694319 37.96131026 10.58744947 35.19967755 11.3125 32.4375 C11.52793457 31.54264893 11.74336914 30.64779785 11.96533203 29.72583008 C13.88212675 22.6169988 17.14882623 17.96398064 23.47265625 14.07543945 C25.96723386 13.09013958 27.86882001 13.02202829 30.546875 13.0546875 C31.94873047 13.06435547 31.94873047 13.06435547 33.37890625 13.07421875 C34.83103516 13.09935547 34.83103516 13.09935547 36.3125 13.125 C37.29605469 13.13402344 38.27960938 13.14304687 39.29296875 13.15234375 C41.71639407 13.17587215 44.13932222 13.20874632 46.5625 13.25 C46.8925 14.57 47.2225 15.89 47.5625 17.25 C48.28953125 16.816875 48.28953125 16.816875 49.03125 16.375 C54.18351647 13.52143703 57.69214063 12.83068862 63.5625 13.25 C65.14726785 17.41001561 65.95880501 20.79156866 65.5625 25.25 C64.5725 26.735 64.5725 26.735 63.5625 28.25 C61.57121537 28.54379609 59.57731852 28.82955113 57.57421875 29.02734375 C51.8705084 29.6586282 48.61642867 32.74709114 44.52734375 36.49609375 C42.5625 38.25 42.5625 38.25 40.31640625 39.59765625 C38.24519248 41.16377325 38.24519248 41.16377325 38.4453125 44.00390625 C38.48398438 45.07511719 38.52265625 46.14632812 38.5625 47.25 C37.93344126 49.585311 37.21476753 51.89724946 36.4375 54.1875 C33.79678717 62.14122366 31.72483582 70.20144608 29.79443359 78.35522461 C27.67338103 86.90484502 24.67523633 91.95328145 17.5625 97.25 C14.67984851 98.21088383 12.88587729 98.36670941 9.89453125 98.34765625 C9.00185547 98.34443359 8.10917969 98.34121094 7.18945312 98.33789062 C5.79629883 98.32532227 5.79629883 98.32532227 4.375 98.3125 C3.43462891 98.30798828 2.49425781 98.30347656 1.52539062 98.29882812 C-0.79563712 98.28704626 -3.11653644 98.27059558 -5.4375 98.25 C-4.24017579 90.52773021 -2.37919294 83.11672838 -0.20239258 75.62158203 C0.9816281 71.51140936 1.96164152 67.49651664 2.5625 63.25 C-1.0675 64.24 -4.6975 65.23 -8.4375 66.25 C-8.1075 67.24 -7.7775 68.23 -7.4375 69.25 C-8.93630419 78.24619072 -12.18013817 88.4001708 -18.62890625 94.97265625 C-24.07838058 98.82142106 -29.31819252 98.49318162 -35.75 98.375 C-37.14702148 98.36146484 -37.14702148 98.36146484 -38.57226562 98.34765625 C-40.8609436 98.32418263 -43.14908672 98.29134729 -45.4375 98.25 C-44.02700983 90.84515786 -42.31880048 83.54944586 -40.4375 76.25 C-43.87287356 76.14312171 -46.43189887 76.53393071 -49.4375 78.25 C-51.16440393 81.33409046 -51.16440393 81.33409046 -52.4375 85 C-54.45914202 90.36646615 -56.09827682 94.47262986 -61.25 97.40625 C-69.03412822 99.46675453 -77.46072425 98.67551533 -85.4375 98.25 C-83.71025715 87.31079527 -83.71025715 87.31079527 -81.4375 82.25 C-78.75 80.625 -78.75 80.625 -76.4375 80.25 C-77.7575 79.92 -79.0775 79.59 -80.4375 79.25 C-79.01500146 72.66087938 -77.45007562 66.13152914 -75.6875 59.625 C-75.460625 58.72265625 -75.23375 57.8203125 -75 56.890625 C-72.97087628 49.48648206 -70.00658479 44.77085788 -63.7109375 40.32421875 C-59.11068768 38.81459023 -54.86713268 38.92884759 -50.0625 39.0625 C-49.13566406 39.07603516 -48.20882812 39.08957031 -47.25390625 39.10351562 C-44.98116002 39.13866119 -42.70964153 39.18785868 -40.4375 39.25 C-41.20368543 46.23186475 -43.23638723 52.71872879 -45.265625 59.42382812 C-46.83132357 64.72341077 -47.92241025 69.7449783 -48.4375 75.25 C-42.9925 74.26 -42.9925 74.26 -37.4375 73.25 C-37.7675 72.26 -38.0975 71.27 -38.4375 70.25 C-37.98779297 67.93188477 -37.98779297 67.93188477 -37.1796875 65.19140625 C-36.88626465 64.17554443 -36.5928418 63.15968262 -36.29052734 62.11303711 C-35.96777832 61.02385986 -35.6450293 59.93468262 -35.3125 58.8125 C-34.65388663 56.53453615 -33.99766441 54.25587969 -33.34375 51.9765625 C-33.01761719 50.83993164 -32.69148438 49.70330078 -32.35546875 48.53222656 C-31.07145704 43.94120173 -29.93186761 39.32088399 -28.8125 34.6875 C-27.29882163 28.52153209 -25.70224707 22.3936966 -23.875 16.3125 C-23.50246094 15.06597656 -23.12992188 13.81945312 -22.74609375 12.53515625 C-20.59977265 7.14692924 -17.69908707 3.73634949 -12.51123047 0.98242188 C-8.4319635 -0.45833641 -4.27057257 -0.15987745 0 0 Z " fill="#F8ECE5" transform="translate(110.4375,49.75)"/>
<path d="M0 0 C0.92232422 0.01804688 1.84464844 0.03609375 2.79492188 0.0546875 C5.05188733 0.10146399 7.30662612 0.16698129 9.5625 0.25 C8.84212733 6.87553289 7.07869101 13.14789903 5.3125 19.5625 C4.99966064 20.71226318 4.68682129 21.86202637 4.36450195 23.04663086 C2.94597962 28.24933095 1.51095507 33.44727316 0.05859375 38.640625 C-0.16473633 39.43944092 -0.38806641 40.23825684 -0.61816406 41.0612793 C-1.02225171 42.50103672 -1.42890535 43.94007801 -1.83886719 45.37817383 C-3.04976666 49.67005696 -3.98722018 53.93564516 -4.73510742 58.33447266 C-5.63230581 60.78126394 -6.66276548 61.37289267 -8.9375 62.5625 C-10.42676371 63.15283877 -11.92785867 63.71391296 -13.4375 64.25 C-14.60732422 64.75273437 -14.60732422 64.75273437 -15.80078125 65.265625 C-31.85100914 72.12600949 -31.85100914 72.12600949 -38.4375 70.25 C-38.2516333 69.59741211 -38.0657666 68.94482422 -37.87426758 68.27246094 C-34.70337986 57.11328136 -31.55343431 45.96113063 -28.8125 34.6875 C-27.29779852 28.52173762 -25.70226717 22.39376348 -23.875 16.3125 C-23.50246094 15.06597656 -23.12992188 13.81945312 -22.74609375 12.53515625 C-20.59977265 7.14692924 -17.69908707 3.73634949 -12.51123047 0.98242188 C-8.4319635 -0.45833641 -4.27057257 -0.15987745 0 0 Z " fill="#5F44C6" transform="translate(110.4375,49.75)"/>
<path d="M0 0 C-0.56120995 6.75505153 -1.91386044 12.83575048 -3.875 19.3125 C-5.60948327 25.16368852 -7.28145529 30.98111846 -8.625 36.9375 C-10.435473 44.30497392 -14.03580009 48.55857454 -20 53 C-22.88265149 53.96088383 -24.67662271 54.11670941 -27.66796875 54.09765625 C-28.56064453 54.09443359 -29.45332031 54.09121094 -30.37304688 54.08789062 C-31.76620117 54.07532227 -31.76620117 54.07532227 -33.1875 54.0625 C-34.59805664 54.05573242 -34.59805664 54.05573242 -36.03710938 54.04882812 C-38.35813712 54.03704626 -40.67903644 54.02059558 -43 54 C-37.33690506 21.13701138 -37.33690506 21.13701138 -30.8125 15.87890625 C-27.41898492 13.7471919 -23.75330215 12.38387618 -20 11 C-18.02357089 9.97155279 -16.0632534 8.91120353 -14.125 7.8125 C-13.25359375 7.34199219 -12.3821875 6.87148437 -11.484375 6.38671875 C-9.06393394 5.0356864 -6.7168789 3.60735952 -4.375 2.125 C-1 0 -1 0 0 0 Z " fill="#5638B1" transform="translate(148,94)"/>
<path d="M0 0 C0.92683594 0.01353516 1.85367188 0.02707031 2.80859375 0.04101562 C5.08133998 0.07616119 7.35285847 0.12535868 9.625 0.1875 C8.94838711 6.20275358 7.44128436 11.82100708 5.75 17.625 C5.36521484 18.97948242 5.36521484 18.97948242 4.97265625 20.36132812 C3.42142422 25.7438694 1.6632559 30.96980901 -0.375 36.1875 C-4.4364603 36.86060593 -8.49932096 37.52485482 -12.5625 38.1875 C-13.71298828 38.37828125 -14.86347656 38.5690625 -16.04882812 38.765625 C-17.16064453 38.94609375 -18.27246094 39.1265625 -19.41796875 39.3125 C-20.94973755 39.56386719 -20.94973755 39.56386719 -22.51245117 39.8203125 C-25.17345372 40.16164707 -27.69642068 40.25634702 -30.375 40.1875 C-28.95250146 33.59837938 -27.38757562 27.06902914 -25.625 20.5625 C-25.398125 19.66015625 -25.17125 18.7578125 -24.9375 17.828125 C-22.90837628 10.42398206 -19.94408479 5.70835788 -13.6484375 1.26171875 C-9.04818768 -0.24790977 -4.80463268 -0.13365241 0 0 Z " fill="#684ED8" transform="translate(60.375,88.8125)"/>
<path d="M0 0 C1.40185547 0.00966797 1.40185547 0.00966797 2.83203125 0.01953125 C4.28416016 0.04466797 4.28416016 0.04466797 5.765625 0.0703125 C6.74917969 0.07933594 7.73273438 0.08835938 8.74609375 0.09765625 C11.16951907 0.12118465 13.59244722 0.15405882 16.015625 0.1953125 C15.42178022 2.76060138 14.81601012 5.32206704 14.203125 7.8828125 C14.03748047 8.60404297 13.87183594 9.32527344 13.70117188 10.06835938 C11.60303496 18.73801948 7.83057453 22.51200815 0.640625 27.5703125 C-0.15923828 28.14031982 -0.95910156 28.71032715 -1.78320312 29.29760742 C-18.74264372 41.1953125 -18.74264372 41.1953125 -23.984375 41.1953125 C-23.05817059 36.51157964 -22.04534102 31.85010685 -20.984375 27.1953125 C-20.81276855 26.4307373 -20.64116211 25.66616211 -20.46435547 24.87841797 C-16.29920157 6.77730677 -16.29920157 6.77730677 -8.984375 2.1953125 C-5.85399331 0.35611228 -3.61811031 -0.0441233 0 0 Z " fill="#6A51DB" transform="translate(140.984375,62.8046875)"/>
<path d="M0 0 C-0.60540995 3.3475609 -1.28224979 6.67472686 -2 10 C-2.18304688 10.86109375 -2.36609375 11.7221875 -2.5546875 12.609375 C-4.16137551 18.99645571 -6.89024218 23.74534451 -12 28 C-16.77478088 30.77707706 -21.96286808 30.22329712 -27.3125 30.125 C-28.24384766 30.11597656 -29.17519531 30.10695312 -30.13476562 30.09765625 C-32.4234436 30.07418263 -34.71158672 30.04134729 -37 30 C-36.37504007 26.65687551 -35.70511502 23.3272615 -35 20 C-34.79375 18.99582031 -34.5875 17.99164063 -34.375 16.95703125 C-34.148125 15.98121094 -33.92125 15.00539062 -33.6875 14 C-33.48511719 13.0925 -33.28273438 12.185 -33.07421875 11.25 C-32 9 -32 9 -29.74389648 7.95141602 C-27.1840717 7.06382484 -24.63143285 6.26029166 -22.0234375 5.52734375 C-21.105625 5.26759766 -20.1878125 5.00785156 -19.2421875 4.74023438 C-17.82292969 4.34288086 -17.82292969 4.34288086 -16.375 3.9375 C-14.48682522 3.405494 -12.59879774 2.87296485 -10.7109375 2.33984375 C-9.87868652 2.10644287 -9.04643555 1.87304199 -8.18896484 1.63256836 C-2.53956002 0 -2.53956002 0 0 0 Z " fill="#5131A6" transform="translate(102,118)"/>
<path d="M0 0 C-1.2260839 7.25970732 -2.72554834 12.61975875 -8.9609375 17.15234375 C-13.77243524 19.80590449 -18.5784738 19.44047803 -23.9375 19.25 C-24.90751953 19.23195312 -25.87753906 19.21390625 -26.87695312 19.1953125 C-29.25234894 19.14850667 -31.62563844 19.08296385 -34 19 C-33.27275406 13.47293087 -31.66554027 8.30039859 -30 3 C-25.56279903 2.49732222 -21.12519293 1.99831453 -16.6875 1.5 C-15.42486328 1.35691406 -14.16222656 1.21382812 -12.86132812 1.06640625 C-11.65283203 0.93105469 -10.44433594 0.79570312 -9.19921875 0.65625 C-8.08377686 0.53056641 -6.96833496 0.40488281 -5.8190918 0.27539062 C-3 0 -3 0 0 0 Z " fill="#43208D" transform="translate(59,129)"/>
<path d="M0 0 C0.92232422 0.01804688 1.84464844 0.03609375 2.79492188 0.0546875 C5.05188733 0.10146399 7.30662612 0.16698129 9.5625 0.25 C9.5625 1.9 9.5625 3.55 9.5625 5.25 C9.0675 3.765 9.0675 3.765 8.5625 2.25 C-5.26827237 2.47945598 -5.26827237 2.47945598 -16.75 9.5 C-21.09719099 16.58431125 -22.64789073 24.74471953 -24.5 32.75 C-25.01143691 34.92714956 -25.52314955 37.10423437 -26.03515625 39.28125 C-26.27443848 40.30694092 -26.5137207 41.33263184 -26.76025391 42.3894043 C-27.3467429 44.86665429 -27.95926745 47.33448305 -28.58984375 49.80078125 C-29.50597387 53.26567966 -29.50597387 53.26567966 -29.9375 56.9375 C-30.40154553 60.01180162 -31.15709625 62.43311175 -32.4375 65.25 C-29.67485711 65.84732819 -27.27717231 66.25 -24.4375 66.25 C-23.9425 65.26 -23.9425 65.26 -23.4375 64.25 C-21.546875 63.46875 -21.546875 63.46875 -19.1875 62.75 C-17.97126953 62.35941406 -17.97126953 62.35941406 -16.73046875 61.9609375 C-14.99031827 61.42140192 -13.24605729 60.89510217 -11.5 60.375 C-9.18319785 59.36599747 -9.18319785 59.36599747 -8.125 56.625 C-7.898125 55.84125 -7.67125 55.0575 -7.4375 54.25 C-6.7775 54.25 -6.1175 54.25 -5.4375 54.25 C-5.64375 53.46625 -5.85 52.6825 -6.0625 51.875 C-6.5519749 47.14340927 -5.89699684 42.78212177 -4.4375 38.25 C-3.7775 37.92 -3.1175 37.59 -2.4375 37.25 C0.01625801 41.32459957 -0.58935887 43.69391018 -1.6484375 48.16015625 C-1.97714844 49.44212891 -1.97714844 49.44212891 -2.3125 50.75 C-2.49296875 51.60464844 -2.6734375 52.45929688 -2.859375 53.33984375 C-4.40187129 59.44317785 -4.40187129 59.44317785 -7.24975586 61.66186523 C-9.28150708 62.68929436 -11.28880205 63.50200183 -13.4375 64.25 C-14.28957031 64.63285156 -15.14164063 65.01570313 -16.01953125 65.41015625 C-32.30239252 71.99744338 -32.30239252 71.99744338 -38.4375 70.25 C-38.2516333 69.59741211 -38.0657666 68.94482422 -37.87426758 68.27246094 C-34.70337986 57.11328136 -31.55343431 45.96113063 -28.8125 34.6875 C-27.29779852 28.52173762 -25.70226717 22.39376348 -23.875 16.3125 C-23.50246094 15.06597656 -23.12992188 13.81945312 -22.74609375 12.53515625 C-20.59977265 7.14692924 -17.69908707 3.73634949 -12.51123047 0.98242188 C-8.4319635 -0.45833641 -4.27057257 -0.15987745 0 0 Z " fill="#8571F4" transform="translate(110.4375,49.75)"/>
<path d="M0 0 C0.92683594 0.01353516 1.85367188 0.02707031 2.80859375 0.04101562 C5.08133998 0.07616119 7.35285847 0.12535868 9.625 0.1875 C9.295 1.5075 8.965 2.8275 8.625 4.1875 C7.40683594 4.14109375 6.18867187 4.0946875 4.93359375 4.046875 C3.30992052 4.00933342 1.68622055 3.97293583 0.0625 3.9375 C-0.73736328 3.90398437 -1.53722656 3.87046875 -2.36132812 3.8359375 C-8.24315438 3.73990768 -11.56221172 4.76123843 -16.375 8.1875 C-21.40335703 14.89197604 -23.68061987 23.84407742 -23.375 32.1875 C-24.035 32.1875 -24.695 32.1875 -25.375 32.1875 C-25.87 34.6625 -25.87 34.6625 -26.375 37.1875 C-25.385 37.1875 -24.395 37.1875 -23.375 37.1875 C-22.715 35.5375 -22.055 33.8875 -21.375 32.1875 C-19.91707116 32.13350264 -18.45857288 32.09470823 -17 32.0625 C-15.78183594 32.02769531 -15.78183594 32.02769531 -14.5390625 31.9921875 C-12.375 32.1875 -12.375 32.1875 -10.375 34.1875 C-10.705 34.8475 -11.035 35.5075 -11.375 36.1875 C-10.385 35.5275 -9.395 34.8675 -8.375 34.1875 C-7.385 33.6925 -7.385 33.6925 -6.375 33.1875 C-6.375 33.8475 -6.375 34.5075 -6.375 35.1875 C-4.395 34.6925 -4.395 34.6925 -2.375 34.1875 C-2.21064453 33.23037109 -2.21064453 33.23037109 -2.04296875 32.25390625 C-1.88441406 31.42761719 -1.72585937 30.60132812 -1.5625 29.75 C-1.41167969 28.92628906 -1.26085937 28.10257813 -1.10546875 27.25390625 C-0.74388672 26.23103516 -0.74388672 26.23103516 -0.375 25.1875 C0.615 24.8575 1.605 24.5275 2.625 24.1875 C1.73691336 33.06836643 1.73691336 33.06836643 -0.375 36.1875 C-2.81762695 37.00878906 -2.81762695 37.00878906 -5.86328125 37.453125 C-7.51166992 37.70449219 -7.51166992 37.70449219 -9.19335938 37.9609375 C-10.34642578 38.11820313 -11.49949219 38.27546875 -12.6875 38.4375 C-13.82896484 38.61023438 -14.97042969 38.78296875 -16.14648438 38.9609375 C-20.92884007 39.6652938 -25.53312888 40.29173357 -30.375 40.1875 C-28.95250146 33.59837938 -27.38757562 27.06902914 -25.625 20.5625 C-25.398125 19.66015625 -25.17125 18.7578125 -24.9375 17.828125 C-22.90837628 10.42398206 -19.94408479 5.70835788 -13.6484375 1.26171875 C-9.04818768 -0.24790977 -4.80463268 -0.13365241 0 0 Z " fill="#927AD4" transform="translate(60.375,88.8125)"/>
<path d="M0 0 C0.66 0.33 1.32 0.66 2 1 C2.484375 2.9609375 2.484375 2.9609375 2.75 5.375 C2.84796875 6.16648437 2.9459375 6.95796875 3.046875 7.7734375 C3 10 3 10 1 13 C-0.99128463 13.29379609 -2.98518148 13.57955113 -4.98828125 13.77734375 C-10.5459488 14.39246424 -13.50342865 17.24644197 -17.48828125 20.859375 C-20.58450006 23.49814313 -23.81956488 25.88171976 -27.125 28.25 C-27.71079834 28.67410156 -28.29659668 29.09820312 -28.90014648 29.53515625 C-32.44822256 32.05485519 -35.97255219 34.29563078 -40 36 C-40.66 35.67 -41.32 35.34 -42 35 C-39.07640813 31.86214963 -36.066526 29.64616141 -32.4375 27.375 C-26.79997435 23.70196182 -22.03865896 19.61640814 -17.1796875 15.00390625 C-15 13 -15 13 -13 12 C-12.87625 10.741875 -12.7525 9.48375 -12.625 8.1875 C-12.30765499 5.2897759 -12.02312706 4.03700329 -10.4375 1.5 C-6.80171795 -0.73740434 -4.23499734 -0.34153204 0 0 Z " fill="#ECA05F" transform="translate(173,65)"/>
<path d="M0 0 C0 0.99 0 1.98 0 3 C-3.465 4.485 -3.465 4.485 -7 6 C-4.03 6.495 -4.03 6.495 -1 7 C-1.33 7.66 -1.66 8.32 -2 9 C-3.74121094 9.54272461 -3.74121094 9.54272461 -5.984375 9.96484375 C-10.81366665 10.94274663 -15.51396128 12.20991945 -20.25 13.5625 C-27.36597568 15.58972563 -33.5479317 17 -41 17 C-43.33075929 17.95865509 -43.33075929 17.95865509 -45 21 C-45 20.34 -45 19.68 -45 19 C-45.93005859 19.19916016 -45.93005859 19.19916016 -46.87890625 19.40234375 C-54.91561245 21.00500568 -62.82982404 21.58101662 -71 22 C-70.34960938 20.07250977 -70.34960938 20.07250977 -69 18 C-66.50976562 17.22631836 -66.50976562 17.22631836 -63.40625 16.83984375 C-62.29378906 16.68580078 -61.18132813 16.53175781 -60.03515625 16.37304688 C-58.86855469 16.22931641 -57.70195313 16.08558594 -56.5 15.9375 C-54.19637557 15.64604696 -51.89415324 15.34321604 -49.59375 15.02734375 C-48.56958984 14.90093506 -47.54542969 14.77452637 -46.49023438 14.64428711 C-43.65603375 14.20618578 -43.65603375 14.20618578 -42 11 C-42 12.32 -42 13.64 -42 15 C-36.555 14.01 -36.555 14.01 -31 13 C-31.495 12.01 -31.495 12.01 -32 11 C-30.42025391 10.56300781 -30.42025391 10.56300781 -28.80859375 10.1171875 C-18.92563793 7.32755989 -9.45420168 4.00461818 0 0 Z " fill="#F1E4E4" transform="translate(104,110)"/>
<path d="M0 0 C-0.44947998 8.54011956 -3.14908583 16.01533633 -6 24 C-7.32 23.34 -8.64 22.68 -10 22 C-9.67 20.35 -9.34 18.7 -9 17 C-11.31 17.99 -13.62 18.98 -16 20 C-16 18.35 -16 16.7 -16 15 C-16.99 15 -17.98 15 -19 15 C-19 15.66 -19 16.32 -19 17 C-20.093125 17.020625 -21.18625 17.04125 -22.3125 17.0625 C-25.95732337 17.56114043 -25.95732337 17.56114043 -27.1328125 19.625 C-28.06424734 21.78223035 -28.06424734 21.78223035 -29 25 C-31 22 -31 22 -30.8984375 19.49609375 C-29.74464987 16.29057073 -28.58832193 15.67503322 -25.625 14.0625 C-24.27148438 13.30839844 -24.27148438 13.30839844 -22.890625 12.5390625 C-21.93671875 12.03117187 -20.9828125 11.52328125 -20 11 C-18.12480666 9.97952186 -16.24980447 8.95869238 -14.375 7.9375 C-13.4675 7.44894531 -12.56 6.96039063 -11.625 6.45703125 C-9.15405501 5.0855097 -6.76141693 3.63781787 -4.375 2.125 C-1 0 -1 0 0 0 Z " fill="#3D187B" transform="translate(148,94)"/>
<path d="M0 0 C1.40185547 0.00966797 1.40185547 0.00966797 2.83203125 0.01953125 C4.28416016 0.04466797 4.28416016 0.04466797 5.765625 0.0703125 C6.74917969 0.07933594 7.73273438 0.08835938 8.74609375 0.09765625 C11.16951907 0.12118465 13.59244722 0.15405882 16.015625 0.1953125 C15.685625 1.1853125 15.355625 2.1753125 15.015625 3.1953125 C13.8090625 3.20949219 12.6025 3.22367187 11.359375 3.23828125 C0.32094614 3.2582619 0.32094614 3.2582619 -9.57421875 7.55078125 C-15.94371374 14.97891807 -18.12075407 26.69548229 -18.984375 36.1953125 C-19.28606566 37.53615986 -19.59955181 38.8759187 -19.984375 40.1953125 C-21.964375 40.6903125 -21.964375 40.6903125 -23.984375 41.1953125 C-23.05817059 36.51157964 -22.04534102 31.85010685 -20.984375 27.1953125 C-20.81276855 26.4307373 -20.64116211 25.66616211 -20.46435547 24.87841797 C-16.29920157 6.77730677 -16.29920157 6.77730677 -8.984375 2.1953125 C-5.85399331 0.35611228 -3.61811031 -0.0441233 0 0 Z " fill="#A895DF" transform="translate(140.984375,62.8046875)"/>
<path d="M0 0 C0.99 0.33 1.98 0.66 3 1 C2.67 2.32 2.34 3.64 2 5 C1.505 4.01 1.505 4.01 1 3 C0.28199219 3.46148437 -0.43601563 3.92296875 -1.17578125 4.3984375 C-8.82765369 9.22016534 -16.63911971 13.53003825 -24.72583008 17.58544922 C-25.51111084 17.98650879 -26.2963916 18.38756836 -27.10546875 18.80078125 C-28.15963989 19.32925659 -28.15963989 19.32925659 -29.23510742 19.8684082 C-31.31205156 21.03361649 -31.31205156 21.03361649 -33 24 C-33 23.01 -33 22.02 -33 21 C-33.97582031 21.30035156 -34.95164062 21.60070312 -35.95703125 21.91015625 C-37.24205183 22.29472445 -38.52721569 22.67881414 -39.8125 23.0625 C-40.45509766 23.26166016 -41.09769531 23.46082031 -41.75976562 23.66601562 C-46.66015625 25.11328125 -46.66015625 25.11328125 -50 24 C-48.87078125 23.48953125 -48.87078125 23.48953125 -47.71875 22.96875 C-41.25794807 20.02061708 -34.85516478 16.98124759 -28.5 13.8125 C-27.83033203 13.47992188 -27.16066406 13.14734375 -26.47070312 12.8046875 C-23.62703598 11.37855836 -20.89105187 9.92945915 -18.21875 8.19921875 C-17.4865625 7.80347656 -16.754375 7.40773438 -16 7 C-15.01 7.33 -14.02 7.66 -13 8 C-10.52890619 6.86609112 -10.52890619 6.86609112 -8 5.1875 C-7.13375 4.64480469 -6.2675 4.10210937 -5.375 3.54296875 C-3.57552923 2.37390468 -1.78548103 1.19032069 0 0 Z " fill="#F3DFE0" transform="translate(146,92)"/>
<path d="M0 0 C0.92232422 0.01804688 1.84464844 0.03609375 2.79492188 0.0546875 C5.05188733 0.10146399 7.30662612 0.16698129 9.5625 0.25 C9.5625 1.9 9.5625 3.55 9.5625 5.25 C9.0675 3.765 9.0675 3.765 8.5625 2.25 C-5.26827237 2.47945598 -5.26827237 2.47945598 -16.75 9.5 C-20.91564966 16.28846611 -22.61697691 24.25907041 -24.63085938 31.890625 C-24.83646484 32.65375 -25.04207031 33.416875 -25.25390625 34.203125 C-25.43381104 34.88536133 -25.61371582 35.56759766 -25.79907227 36.27050781 C-26.48369553 38.39323263 -27.39424739 40.28176492 -28.4375 42.25 C-29.0975 42.25 -29.7575 42.25 -30.4375 42.25 C-28.52042745 33.59639875 -26.49609087 24.98937058 -23.9375 16.5 C-23.74841064 15.84580078 -23.55932129 15.19160156 -23.36450195 14.51757812 C-21.41024902 8.22863023 -18.41035829 4.1139215 -12.51123047 0.98242188 C-8.4319635 -0.45833641 -4.27057257 -0.15987745 0 0 Z " fill="#9C80D3" transform="translate(110.4375,49.75)"/>
<path d="M0 0 C1.39878441 3.7980239 0.57013139 6.53256562 -0.4375 10.375 C-1.57354328 14.72558726 -2.17000763 18.49819802 -2 23 C3.93609666 23.89316269 9.06975197 23.97040422 15 23 C15.144375 22.4225 15.28875 21.845 15.4375 21.25 C15.95833333 19.16666667 16.47916667 17.08333333 17 15 C16.34 15 15.68 15 15 15 C15.33 14.01 15.66 13.02 16 12 C16.556875 12.37125 17.11375 12.7425 17.6875 13.125 C20.05716353 14.29515863 20.05716353 14.29515863 22.75 13.125 C23.4925 12.75375 24.235 12.3825 25 12 C23.78084942 18.2481467 19.97452989 21.42424881 15 25 C12.11734851 25.96088383 10.32337729 26.11670941 7.33203125 26.09765625 C6.43935547 26.09443359 5.54667969 26.09121094 4.62695312 26.08789062 C3.23379883 26.07532227 3.23379883 26.07532227 1.8125 26.0625 C0.87212891 26.05798828 -0.06824219 26.05347656 -1.03710938 26.04882812 C-3.35813712 26.03704626 -5.67903644 26.02059558 -8 26 C-6.64073192 17.52502196 -4.91771493 9.0921 -2 1 C-1.34 0.67 -0.68 0.34 0 0 Z " fill="#705DCF" transform="translate(113,122)"/>
<path d="M0 0 C-0.5260925 3.78786597 -1.38103911 6.17152224 -4 9 C-4.66 9 -5.32 9 -6 9 C-6 8.34 -6 7.68 -6 7 C-6.99 7.495 -6.99 7.495 -8 8 C-9.43809264 7.99434934 -10.87622075 7.94741744 -12.3125 7.875 C-17.86714152 7.82167544 -20.45683364 9.67728597 -24.625 13.25 C-25.40875 13.8275 -26.1925 14.405 -27 15 C-27.99 14.67 -28.98 14.34 -30 14 C-29.67 12.35 -29.34 10.7 -29 9 C-28.34 9 -27.68 9 -27 9 C-27 8.34 -27 7.68 -27 7 C-26.06933716 6.73521851 -26.06933716 6.73521851 -25.11987305 6.46508789 C-22.30888435 5.66491784 -19.49818942 4.86372066 -16.6875 4.0625 C-15.71103516 3.78470703 -14.73457031 3.50691406 -13.72851562 3.22070312 C-12.79072266 2.95322266 -11.85292969 2.68574219 -10.88671875 2.41015625 C-9.59060669 2.04096069 -9.59060669 2.04096069 -8.26831055 1.66430664 C-2.58544653 0 -2.58544653 0 0 0 Z " fill="#47268C" transform="translate(102,118)"/>
<path d="M0 0 C0.66 0.33 1.32 0.66 2 1 C2 1.66 2 2.32 2 3 C1.34 3 0.68 3 0 3 C0.309375 4.423125 0.309375 4.423125 0.625 5.875 C0.74875 6.90625 0.8725 7.9375 1 9 C0.34 9.66 -0.32 10.32 -1 11 C-0.01 12.485 -0.01 12.485 1 14 C7.34552901 15.11556559 13.87251502 13.6576771 20 12 C20 11.34 20 10.68 20 10 C19.34 9.67 18.68 9.34 18 9 C19.65 7.35 21.3 5.7 23 4 C23.99 4.33 24.98 4.66 26 5 C26.99 4.01 27.98 3.02 29 2 C27.78084942 8.2481467 23.97452989 11.42424881 19 15 C16.11734851 15.96088383 14.32337729 16.11670941 11.33203125 16.09765625 C10.43935547 16.09443359 9.54667969 16.09121094 8.62695312 16.08789062 C7.23379883 16.07532227 7.23379883 16.07532227 5.8125 16.0625 C4.87212891 16.05798828 3.93175781 16.05347656 2.96289062 16.04882812 C0.64186288 16.03704626 -1.67903644 16.02059558 -4 16 C-2.96997405 10.53313102 -1.93004549 5.2386949 0 0 Z " fill="#614BB3" transform="translate(69,132)"/>
<path d="M0 0 C0.33 0 0.66 0 1 0 C1.22036864 3.85645121 0.60355101 6.49223216 -1 10 C-1.33 9.34 -1.66 8.68 -2 8 C-2.62003906 8.13277344 -3.24007812 8.26554688 -3.87890625 8.40234375 C-11.91561245 10.00500568 -19.82982404 10.58101662 -28 11 C-27.35400391 9.07910156 -27.35400391 9.07910156 -26 7 C-23.47802734 6.17871094 -23.47802734 6.17871094 -20.3359375 5.734375 C-18.65371094 5.48300781 -18.65371094 5.48300781 -16.9375 5.2265625 C-15.761875 5.06929688 -14.58625 4.91203125 -13.375 4.75 C-12.19164062 4.57726562 -11.00828125 4.40453125 -9.7890625 4.2265625 C-6.86129195 3.80156355 -3.93214473 3.39348307 -1 3 C-0.67 2.01 -0.34 1.02 0 0 Z " fill="#EEE5FA" transform="translate(61,121)"/>
<path d="M0 0 C1.2138637 3.89484325 0.98775988 6.46614239 -0.54296875 10.2265625 C-3.1868444 13.44457736 -6.74493231 13.42080997 -10.703125 13.8359375 C-15.47867934 14.07358357 -20.22098918 14.16933503 -25 14 C-24.34 12.02 -23.68 10.04 -23 8 C-21.54207116 7.94600264 -20.08357288 7.90720823 -18.625 7.875 C-17.81289063 7.85179688 -17.00078125 7.82859375 -16.1640625 7.8046875 C-14 8 -14 8 -12 10 C-12.33 10.66 -12.66 11.32 -13 12 C-12.01 11.34 -11.02 10.68 -10 10 C-9.34 9.67 -8.68 9.34 -8 9 C-8 9.66 -8 10.32 -8 11 C-6.68 10.67 -5.36 10.34 -4 10 C-3.87882812 9.36191406 -3.75765625 8.72382812 -3.6328125 8.06640625 C-3.46523438 7.24011719 -3.29765625 6.41382812 -3.125 5.5625 C-2.96257813 4.73878906 -2.80015625 3.91507812 -2.6328125 3.06640625 C-2.42398438 2.38449219 -2.21515625 1.70257813 -2 1 C-1.34 0.67 -0.68 0.34 0 0 Z " fill="#8271E6" transform="translate(62,113)"/>
<path d="M0 0 C0.35820896 6.32835821 0.35820896 6.32835821 -1 8.875 C-4.1954406 10.67243534 -7.36473107 10.70202714 -11 11 C-12.27115705 7.18652885 -11.54905091 5.64026964 -10 2 C-6.3558226 -0.4294516 -4.28758728 -0.16179575 0 0 Z " fill="#F89C43" transform="translate(174,67)"/>
<path d="M0 0 C0.66 0.33 1.32 0.66 2 1 C1.2908159 5.9642887 -1.83341761 7.71036665 -5.625 10.63671875 C-11.86324552 15.12724685 -18.55681249 18.977633 -25.16577148 22.89013672 C-26.80507683 23.882055 -28.40575518 24.93717012 -30 26 C-33.1875 26.125 -33.1875 26.125 -36 26 C-35 24 -35 24 -32.37890625 23.125 C-30.70634766 22.568125 -30.70634766 22.568125 -29 22 C-26.5883818 20.71822355 -24.26583746 19.41631869 -21.9375 18 C-21.29280762 17.60989746 -20.64811523 17.21979492 -19.98388672 16.81787109 C-15.36598887 13.96713553 -10.94571794 10.90769848 -6.625 7.625 C-5.79536743 7.00044922 -5.79536743 7.00044922 -4.94897461 6.36328125 C-2.29917157 4.29300409 -1.08796908 3.26390723 0 0 Z " fill="#F1DEEE" transform="translate(152,79)"/>
<path d="M0 0 C0.33 1.32 0.66 2.64 1 4 C-14.35674157 15 -14.35674157 15 -19 15 C-19 14.34 -19 13.68 -19 13 C-18.236875 12.7525 -17.47375 12.505 -16.6875 12.25 C-13.73819971 10.87823242 -12.82568981 9.6081283 -11 7 C-10.34 7 -9.68 7 -9 7 C-9.33 5.68 -9.66 4.36 -10 3 C-9.46375 2.87625 -8.9275 2.7525 -8.375 2.625 C-5.5361714 1.87793984 -2.77776798 0.94696636 0 0 Z " fill="#816FEA" transform="translate(139,87)"/>
<path d="M0 0 C0.33 0 0.66 0 1 0 C0.855625 0.969375 0.71125 1.93875 0.5625 2.9375 C-0.06047442 7.28052169 -0.53507859 11.63765234 -1 16 C-1.66 16 -2.32 16 -3 16 C-3.33 17.65 -3.66 19.3 -4 21 C-1.36 21.33 1.28 21.66 4 22 C4 22.33 4 22.66 4 23 C0.04 23.33 -3.92 23.66 -8 24 C-6.47536437 16.50387484 -4.31993846 9.28640866 -2 2 C-1.34 2 -0.68 2 0 2 C0 1.34 0 0.68 0 0 Z " fill="#806BE3" transform="translate(38,105)"/>
<path d="M0 0 C4.29 0 8.58 0 13 0 C12.32975871 9.1152815 12.32975871 9.1152815 9 13 C8.28566879 15.64934822 8.28566879 15.64934822 8 18 C6.48245997 15.58978936 5.97683094 14.31664378 6.1875 11.4375 C7.04972947 8.85081159 7.92195383 7.71664683 10 6 C9.67 5.34 9.34 4.68 9 4 C8.01 4.33 7.02 4.66 6 5 C6 4.34 6 3.68 6 3 C3.69 3 1.38 3 -1 3 C-0.67 2.01 -0.34 1.02 0 0 Z " fill="#421F85" transform="translate(106,53)"/>
<path d="M0 0 C0.66 0.33 1.32 0.66 2 1 C2.484375 2.9609375 2.484375 2.9609375 2.75 5.375 C2.84796875 6.16648437 2.9459375 6.95796875 3.046875 7.7734375 C3 10 3 10 1 13 C-0.875 13.58203125 -0.875 13.58203125 -3 13.8125 C-3.70125 13.90144531 -4.4025 13.99039063 -5.125 14.08203125 C-7 14 -7 14 -9 12 C-4.545 11.505 -4.545 11.505 0 11 C0.33 8.03 0.66 5.06 1 2 C-4.3086849 2.58174845 -4.3086849 2.58174845 -9 5 C-10.21284876 8.05429073 -10.21284876 8.05429073 -11 11 C-11.33 11 -11.66 11 -12 11 C-12.47863248 4.77777778 -12.47863248 4.77777778 -10.5 1.5625 C-6.81855488 -0.7384032 -4.30631826 -0.34728373 0 0 Z " fill="#F3A574" transform="translate(173,65)"/>
<path d="M0 0 C2.64 0 5.28 0 8 0 C8 0.33 8 0.66 8 1 C5.69 1 3.38 1 1 1 C1.33 2.98 1.66 4.96 2 7 C1.34 7 0.68 7 0 7 C0 8.65 0 10.3 0 12 C0.66 12.33 1.32 12.66 2 13 C2 13.66 2 14.32 2 15 C6.95 15 11.9 15 17 15 C17 15.33 17 15.66 17 16 C10.07 16 3.14 16 -4 16 C-3.32520054 11.95120325 -2.63595911 8.48091191 -1.4375 4.625 C-1.16808594 3.75101563 -0.89867187 2.87703125 -0.62109375 1.9765625 C-0.41613281 1.32429687 -0.21117187 0.67203125 0 0 Z " fill="#604797" transform="translate(29,132)"/>
<path d="M0 0 C0 0.99 0 1.98 0 3 C-2.85264678 4.12898402 -5.70699937 5.25327567 -8.5625 6.375 C-9.36236328 6.69210938 -10.16222656 7.00921875 -10.98632812 7.3359375 C-18.09119345 10.11988473 -24.23780005 12.31682449 -32 12 C-28.35574552 9.96405171 -24.47886208 8.86602165 -20.5 7.6875 C-13.46655787 5.5556895 -6.71957328 2.99071917 0 0 Z " fill="#F5EBFA" transform="translate(104,110)"/>
<path d="M0 0 C-0.47603774 2.12570312 -0.95592598 4.25054427 -1.4375 6.375 C-1.70433594 7.55835937 -1.97117188 8.74171875 -2.24609375 9.9609375 C-3 13 -3 13 -4 15 C-5.32 14.34 -6.64 13.68 -8 13 C-6.67993255 4.87116358 -6.67993255 4.87116358 -4 1.4375 C-2 0 -2 0 0 0 Z " fill="#401E7F" transform="translate(146,103)"/>
<path d="M0 0 C1.55004883 1.71582031 1.55004883 1.71582031 3 4 C2.8815918 6.19824219 2.8815918 6.19824219 2.19921875 8.546875 C1.96396484 9.39121094 1.72871094 10.23554687 1.48632812 11.10546875 C1.22271484 11.97816406 0.95910156 12.85085937 0.6875 13.75 C0.43548828 14.63816406 0.18347656 15.52632812 -0.07617188 16.44140625 C-0.7006748 18.63305801 -1.34232883 20.81811647 -2 23 C-2.99 22.67 -3.98 22.34 -5 22 C-4.67 20.35 -4.34 18.7 -4 17 C-3.34 17 -2.68 17 -2 17 C-2.20625 16.21625 -2.4125 15.4325 -2.625 14.625 C-3.11923399 9.84740477 -2.26844808 5.61332829 -1 1 C-0.67 0.67 -0.34 0.34 0 0 Z " fill="#7D6BE8" transform="translate(107,87)"/>
<path d="M0 0 C3.625 0.375 3.625 0.375 7 1 C5.64531705 5.87685861 3.28324091 7.48592381 -1 10 C-1.66 9.67 -2.32 9.34 -3 9 C-2.67 8.67 -2.34 8.34 -2 8 C-2.020625 7.030625 -2.04125 6.06125 -2.0625 5.0625 C-2 2 -2 2 0 0 Z " fill="#492D93" transform="translate(49,137)"/>
<path d="M0 0 C1.45792884 -0.05399736 2.91642712 -0.09279177 4.375 -0.125 C5.18710937 -0.14820312 5.99921875 -0.17140625 6.8359375 -0.1953125 C9 0 9 0 11 2 C10 4 10 4 6.75 5.125 C3.62299365 5.85463482 1.17377095 6.19234975 -2 6 C-1.34 4.02 -0.68 2.04 0 0 Z " fill="#755FF6" transform="translate(39,121)"/>
<path d="M0 0 C0.66 0.33 1.32 0.66 2 1 C2 1.66 2 2.32 2 3 C-1.08046594 4.48519268 -4.16484002 5.96208605 -7.25 7.4375 C-8.55904297 8.06881836 -8.55904297 8.06881836 -9.89453125 8.71289062 C-11.16103516 9.31713867 -11.16103516 9.31713867 -12.453125 9.93359375 C-13.22817383 10.30540771 -14.00322266 10.67722168 -14.80175781 11.06030273 C-16.86119427 11.94066379 -18.8150046 12.52774502 -21 13 C-21 12.34 -21 11.68 -21 11 C-19.90300781 10.45730469 -18.80601563 9.91460937 -17.67578125 9.35546875 C-16.22130061 8.6329203 -14.7668765 7.91025804 -13.3125 7.1875 C-12.59126953 6.83107422 -11.87003906 6.47464844 -11.12695312 6.10742188 C-8.02508407 4.56356924 -5.04048818 3.02551684 -2.10546875 1.17578125 C-1.41066406 0.78777344 -0.71585938 0.39976563 0 0 Z " fill="#EBBE97" transform="translate(130,99)"/>
<path d="M0 0 C0.33 0.66 0.66 1.32 1 2 C-1.31537955 5.72114571 -3.28579473 8.61229661 -7 11 C-7.33 10.01 -7.66 9.02 -8 8 C-8.66 7.67 -9.32 7.34 -10 7 C-8.35 5.35 -6.7 3.7 -5 2 C-4.01 2.33 -3.02 2.66 -2 3 C-1.34 2.01 -0.68 1.02 0 0 Z " fill="#5C43B3" transform="translate(97,134)"/>
<path d="M0 0 C0.33 0 0.66 0 1 0 C0.42978625 6.95660771 -1.01302694 13.31427305 -3 20 C0.465 19.505 0.465 19.505 4 19 C0.99382731 22.00617269 -1.82381598 21.59585316 -6 22 C-4.36695592 14.50652821 -2.57281882 7.22839572 0 0 Z " fill="#9B8CE8" transform="translate(78,99)"/>
<path d="M0 0 C1.15712885 3.45508896 0.83583418 5.95556656 0.125 9.5 C-0.05804688 10.4384375 -0.24109375 11.376875 -0.4296875 12.34375 C-0.90915589 14.57689046 -1.42650817 16.78944967 -2 19 C-3.32 19.33 -4.64 19.66 -6 20 C-5.57305989 17.78960083 -5.13296022 15.58174139 -4.6875 13.375 C-4.44386719 12.14523438 -4.20023437 10.91546875 -3.94921875 9.6484375 C-3.02532386 6.09733532 -1.7610503 3.20639411 0 0 Z " fill="#9D8BEE" transform="translate(123,84)"/>
<path d="M0 0 C-0.33 1.65 -0.66 3.3 -1 5 C-1.33 4.34 -1.66 3.68 -2 3 C-2.928125 3.33 -3.85625 3.66 -4.8125 4 C-10.10589206 5.66067202 -13.79021383 4.36650129 -19 3 C-19 2.67 -19 2.34 -19 2 C-16.39610703 1.66440045 -13.7919239 1.33143142 -11.1875 1 C-10.44951172 0.90460938 -9.71152344 0.80921875 -8.95117188 0.7109375 C-5.94569605 0.33015323 -3.03285559 0 0 0 Z " fill="#492B7E" transform="translate(59,129)"/>
<path d="M0 0 C0.66 0 1.32 0 2 0 C1.67 1.98 1.34 3.96 1 6 C-2.3 6.66 -5.6 7.32 -9 8 C-9 6.68 -9 5.36 -9 4 C-6.94061515 3.48515379 -4.89460574 2.97892115 -2.8125 2.5625 C-2.214375 2.376875 -1.61625 2.19125 -1 2 C-0.67 1.34 -0.34 0.68 0 0 Z " fill="#E76D26" transform="translate(172,70)"/>
<path d="M0 0 C1.21237671 3.63713013 0.63552691 5.09726971 -0.375 8.75 C-1.55270175 13.18117005 -2.48278054 17.44846879 -3 22 C-3.66 22 -4.32 22 -5 22 C-4.8590651 19.56212615 -4.71245458 17.12482147 -4.5625 14.6875 C-4.52318359 13.99720703 -4.48386719 13.30691406 -4.44335938 12.59570312 C-4.25072585 9.52838465 -3.97677283 6.93031848 -3 4 C-2.34 4 -1.68 4 -1 4 C-0.67 2.68 -0.34 1.36 0 0 Z " fill="#8068EA" transform="translate(83,88)"/>
<path d="M0 0 C1.44715727 3.87186448 0.5441918 6.8232328 -0.4375 10.75 C-0.72496094 11.92046875 -1.01242188 13.0909375 -1.30859375 14.296875 C-1.53675781 15.18890625 -1.76492187 16.0809375 -2 17 C-2.66 16.67 -3.32 16.34 -4 16 C-4.19286332 10.50339543 -3.90303246 6.18047725 -2 1 C-1.34 0.67 -0.68 0.34 0 0 Z " fill="#6E54B9" transform="translate(113,122)"/>
<path d="M0 0 C0.99 0.99 1.98 1.98 3 3 C1.56967163 4.17544805 0.13046758 5.34010262 -1.3125 6.5 C-2.11300781 7.1496875 -2.91351563 7.799375 -3.73828125 8.46875 C-6 10 -6 10 -9 10 C-7.61811547 6.78956118 -6.07578097 4.95063635 -3.375 2.75 C-2.74335938 2.22921875 -2.11171875 1.7084375 -1.4609375 1.171875 C-0.73777344 0.59179688 -0.73777344 0.59179688 0 0 Z " fill="#EB9952" transform="translate(161,76)"/>
<path d="M0 0 C0 0.33 0 0.66 0 1 C-0.88042969 1.09796875 -1.76085937 1.1959375 -2.66796875 1.296875 C-3.82941406 1.44640625 -4.99085938 1.5959375 -6.1875 1.75 C-7.91033203 1.95882812 -7.91033203 1.95882812 -9.66796875 2.171875 C-14.60346198 3.39851576 -17.57111992 6.39065254 -21 10 C-20.1741802 5.96265878 -19.34006413 4.28092255 -16.125 1.625 C-11.08918937 -0.96240164 -5.50119434 -0.32519375 0 0 Z " fill="#6143BF" transform="translate(150,66)"/>
<path d="M0 0 C-0.72316406 0.47179688 -0.72316406 0.47179688 -1.4609375 0.953125 C-5.02100251 3.36525068 -7.26020954 4.98509893 -9 9 C-11.125 10.75 -11.125 10.75 -13 12 C-12.68033924 6.72559742 -9.60963971 3.56176651 -6 0 C-3.50907189 -1.24546405 -2.58919267 -0.7767578 0 0 Z " fill="#461F8A" transform="translate(103,55)"/>
<path d="M0 0 C0.33 1.32 0.66 2.64 1 4 C-0.98 4.33 -2.96 4.66 -5 5 C-5 5.66 -5 6.32 -5 7 C-6.32 7 -7.64 7 -9 7 C-9.33 5.68 -9.66 4.36 -10 3 C-9.46375 2.87625 -8.9275 2.7525 -8.375 2.625 C-5.5361714 1.87793984 -2.77776798 0.94696636 0 0 Z " fill="#765DF2" transform="translate(139,87)"/>
<path d="M0 0 C0.33 0.66 0.66 1.32 1 2 C-0.99280636 6.51003546 -3.52831022 10.7384659 -6 15 C-7.3484585 11.93532159 -6.91740262 10.7565551 -5.8125 7.5 C-4.15295819 4.29536754 -2.70507655 2.33196254 0 0 Z " fill="#8A73D1" transform="translate(44,92)"/>
<path d="M0 0 C0.91120605 0.01047363 1.82241211 0.02094727 2.76123047 0.03173828 C3.74736328 0.03818359 4.73349609 0.04462891 5.74951172 0.05126953 C7.29832031 0.07640625 7.29832031 0.07640625 8.87841797 0.10205078 C9.91869141 0.11107422 10.95896484 0.12009766 12.03076172 0.12939453 C14.60520889 0.15301331 17.17920009 0.18594929 19.75341797 0.22705078 C19.75341797 0.55705078 19.75341797 0.88705078 19.75341797 1.22705078 C18.54685547 1.25283203 17.34029297 1.27861328 16.09716797 1.30517578 C14.48255058 1.36149964 12.86796864 1.41884598 11.25341797 1.47705078 C10.46193359 1.49123047 9.67044922 1.50541016 8.85498047 1.52001953 C2.87665705 1.76503279 -1.05530736 3.25040246 -6.24658203 6.22705078 C-3.50597984 0.3543318 -3.50597984 0.3543318 0 0 Z " fill="#967AE0" transform="translate(136.24658203125,64.77294921875)"/>
<path d="M0 0 C0.99 0.33 1.98 0.66 3 1 C2.67 2.32 2.34 3.64 2 5 C1.67 4.34 1.34 3.68 1 3 C-2.63 5.31 -6.26 7.62 -10 10 C-10.33 9.01 -10.66 8.02 -11 7 C-9.23754778 5.8000962 -7.46473019 4.61540483 -5.6875 3.4375 C-4.70136719 2.77621094 -3.71523437 2.11492187 -2.69921875 1.43359375 C-1.80847656 0.96050781 -0.91773438 0.48742187 0 0 Z " fill="#E7D2DA" transform="translate(146,92)"/>
<path d="M0 0 C0.66 0 1.32 0 2 0 C1.71758359 1.46015291 1.42373386 2.91809793 1.125 4.375 C0.96257812 5.18710937 0.80015625 5.99921875 0.6328125 6.8359375 C0 9 0 9 -2 11 C-2.64767793 13.57061311 -2.64767793 13.57061311 -3 16 C-4.51754003 13.58978936 -5.02316906 12.31664378 -4.8125 9.4375 C-3.92998094 6.78994283 -2.97292004 5.89071504 -1 4 C-0.28552357 1.89667109 -0.28552357 1.89667109 0 0 Z " fill="#52369A" transform="translate(117,55)"/>
<path d="M0 0 C0.66 0.99 1.32 1.98 2 3 C0.3811004 4.03048037 -1.24532489 5.04914678 -2.875 6.0625 C-3.77992188 6.63097656 -4.68484375 7.19945313 -5.6171875 7.78515625 C-6.40351563 8.18605469 -7.18984375 8.58695313 -8 9 C-8.66 8.67 -9.32 8.34 -10 8 C-6.97727468 4.74475735 -3.74281699 2.38179263 0 0 Z " fill="#EDAE7B" transform="translate(141,92)"/>
<path d="M0 0 C0.8353125 0.556875 0.8353125 0.556875 1.6875 1.125 C4.05716353 2.29515863 4.05716353 2.29515863 6.75 1.125 C7.4925 0.75375 8.235 0.3825 9 0 C8.34 1.98 7.68 3.96 7 6 C5.35 6 3.7 6 2 6 C1.67 5.01 1.34 4.02 1 3 C0.34 3 -0.32 3 -1 3 C-0.67 2.01 -0.34 1.02 0 0 Z " fill="#6A53D2" transform="translate(129,134)"/>
<path d="M0 0 C-2.30153291 2.30153291 -3.84875905 2.7577028 -6.9375 3.6875 C-7.81277344 3.95949219 -8.68804687 4.23148437 -9.58984375 4.51171875 C-12 5 -12 5 -15 4 C-13.4470724 3.12855131 -11.88214564 2.27846343 -10.3125 1.4375 C-9.44238281 0.96183594 -8.57226562 0.48617187 -7.67578125 -0.00390625 C-4.61671247 -1.14268368 -3.08136961 -0.92718689 0 0 Z " fill="#F3D8C2" transform="translate(111,112)"/>
<path d="M0 0 C-0.33 2.97 -0.66 5.94 -1 9 C-1.66 8.67 -2.32 8.34 -3 8 C-3 7.01 -3 6.02 -3 5 C-4.98 5.33 -6.96 5.66 -9 6 C-6.84456686 3.61767916 -3.40706718 0 0 0 Z " fill="#462870" transform="translate(148,94)"/>
<path d="M0 0 C0.86346331 3.45385323 1.07509884 5.12152653 0.6875 8.5 C0.60886719 9.2528125 0.53023438 10.005625 0.44921875 10.78125 C-0.02609197 13.12887164 -0.83911639 14.91514781 -2 17 C-2.66 17 -3.32 17 -4 17 C-2.68 11.39 -1.36 5.78 0 0 Z " fill="#A38EDA" transform="translate(84,75)"/>
<path d="M0 0 C2 3 2 3 1.875 5.0625 C0.7413007 7.57283417 -0.48618938 8.02691202 -3 9 C-3.75 6.75 -3.75 6.75 -4 4 C-2.0625 1.6875 -2.0625 1.6875 0 0 Z " fill="#7361E7" transform="translate(148,78)"/>
<path d="M0 0 C1.32 0 2.64 0 4 0 C4 0.66 4 1.32 4 2 C8.95 2 13.9 2 19 2 C19 2.33 19 2.66 19 3 C12.4 3 5.8 3 -1 3 C-0.67 2.01 -0.34 1.02 0 0 Z " fill="#503793" transform="translate(27,145)"/>
<path d="M0 0 C-2.23495428 2.23495428 -4.02414536 3.0024791 -6.9375 4.1875 C-7.81277344 4.55230469 -8.68804687 4.91710937 -9.58984375 5.29296875 C-12 6 -12 6 -15 5 C-14.34 5 -13.68 5 -13 5 C-13 4.34 -13 3.68 -13 3 C-11.40084119 2.30093058 -9.79544955 1.61610532 -8.1875 0.9375 C-7.29417969 0.55464844 -6.40085937 0.17179687 -5.48046875 -0.22265625 C-3 -1 -3 -1 0 0 Z " fill="#8376E8" transform="translate(104,110)"/>
<path d="M0 0 C1.49356111 2.37212647 2.04005633 3.60945078 1.75 6.4375 C0.98785409 9.04149851 0.06844502 11.50696162 -1 14 C-1.33 14 -1.66 14 -2 14 C-2.21192221 8.80790596 -1.5912689 4.873261 0 0 Z " fill="#775FEA" transform="translate(124,84)"/>
<path d="M0 0 C0.66 0.33 1.32 0.66 2 1 C2 1.66 2 2.32 2 3 C1.34 3 0.68 3 0 3 C0.309375 4.423125 0.309375 4.423125 0.625 5.875 C0.74875 6.90625 0.8725 7.9375 1 9 C0.34 9.66 -0.32 10.32 -1 11 C-1.6425235 13.06874034 -1.6425235 13.06874034 -2 15 C-2.66 15 -3.32 15 -4 15 C-3.52396226 12.87429688 -3.04407402 10.74945573 -2.5625 8.625 C-2.29566406 7.44164062 -2.02882813 6.25828125 -1.75390625 5.0390625 C-1 2 -1 2 0 0 Z " fill="#735DB4" transform="translate(69,132)"/>
<path d="M0 0 C-4.51654898 3.01103265 -8.47362381 3.12682381 -13.8125 3.0625 C-15.27623047 3.04896484 -15.27623047 3.04896484 -16.76953125 3.03515625 C-17.87361328 3.01775391 -17.87361328 3.01775391 -19 3 C-13.24736889 -0.83508741 -6.68199149 -0.11884965 0 0 Z " fill="#F6EDED" transform="translate(78,124)"/>
<path d="M0 0 C1.65 0 3.3 0 5 0 C4.34 2.31 3.68 4.62 3 7 C1.68 6.34 0.36 5.68 -1 5 C-0.67 3.35 -0.34 1.7 0 0 Z " fill="#4A2D90" transform="translate(139,111)"/>
<path d="M0 0 C0 0.33 0 0.66 0 1 C-1.11375 1.103125 -2.2275 1.20625 -3.375 1.3125 C-4.57125 1.539375 -5.7675 1.76625 -7 2 C-8.99097846 4.98646769 -9.94124926 7.59687262 -11 11 C-11.33 11 -11.66 11 -12 11 C-12.47863248 4.77777778 -12.47863248 4.77777778 -10.5 1.5625 C-6.86353539 -0.71029038 -4.24217465 -0.28281164 0 0 Z " fill="#F9BF87" transform="translate(173,65)"/>
<path d="M0 0 C-0.99 0 -1.98 0 -3 0 C-3 0.66 -3 1.32 -3 2 C-3.99 2 -4.98 2 -6 2 C-6 2.66 -6 3.32 -6 4 C-7.98 4 -9.96 4 -12 4 C-12 3.34 -12 2.68 -12 2 C-10.75579353 1.4654744 -9.50429064 0.94791389 -8.25 0.4375 C-7.55390625 0.14746094 -6.8578125 -0.14257812 -6.140625 -0.44140625 C-3.69987216 -1.07831803 -2.3596345 -0.80248831 0 0 Z " fill="#533188" transform="translate(90,123)"/>
<path d="M0 0 C0 0.99 0 1.98 0 3 C-1.97746603 3.73080266 -3.98072489 4.39421747 -6 5 C-6.66 4.67 -7.32 4.34 -8 4 C-7.67 3.01 -7.34 2.02 -7 1 C-4 0 -4 0 0 0 Z " fill="#310A6B" transform="translate(145,99)"/>
<path d="M0 0 C1.625 1.625 1.625 1.625 3 4 C2.1875 7.25 2.1875 7.25 1 10 C0.01 9.67 -0.98 9.34 -2 9 C-1.125 1.125 -1.125 1.125 0 0 Z " fill="#6E58DD" transform="translate(107,87)"/>
<path d="M0 0 C0.99 0.33 1.98 0.66 3 1 C2.01 1.495 2.01 1.495 1 2 C0.67 2.99 0.34 3.98 0 5 C-2.94389782 6.17755913 -3.89953913 6.03348696 -7 5 C-7 4.34 -7 3.68 -7 3 C-5.5459375 2.5359375 -5.5459375 2.5359375 -4.0625 2.0625 C-1.15934208 1.30476658 -1.15934208 1.30476658 0 0 Z " fill="#F4862F" transform="translate(171,68)"/>
<path d="M0 0 C1.46726798 3.81489674 0.43336419 6.29011622 -1 10 C-1.99 10 -2.98 10 -4 10 C-3.71872579 8.51882199 -3.42466268 7.04006751 -3.125 5.5625 C-2.96257813 4.73878906 -2.80015625 3.91507812 -2.6328125 3.06640625 C-2.42398438 2.38449219 -2.21515625 1.70257813 -2 1 C-1.34 0.67 -0.68 0.34 0 0 Z " fill="#7867E5" transform="translate(62,113)"/>
<path d="M0 0 C0.96661363 3.12180401 0.98988909 5.52083795 0.5625 8.75 C0.40974609 9.94882813 0.40974609 9.94882813 0.25390625 11.171875 C0.12822266 12.07679688 0.12822266 12.07679688 0 13 C-0.99 13.33 -1.98 13.66 -3 14 C-2.69024532 12.22868439 -2.37709575 10.45796222 -2.0625 8.6875 C-1.88847656 7.70136719 -1.71445313 6.71523437 -1.53515625 5.69921875 C-1 3 -1 3 0 0 Z " fill="#8575CC" transform="translate(108,134)"/>
<path d="M0 0 C1.37432457 3.81756824 0.67975039 7.07255329 0 11 C0.66 11.33 1.32 11.66 2 12 C0.35 12 -1.3 12 -3 12 C-2.68950274 10.56206608 -2.3765224 9.1246682 -2.0625 7.6875 C-1.88847656 6.88699219 -1.71445312 6.08648437 -1.53515625 5.26171875 C-1 3 -1 3 0 0 Z " fill="#A094E0" transform="translate(33,117)"/>
<path d="M0 0 C0.66 0 1.32 0 2 0 C2.103125 1.11375 2.20625 2.2275 2.3125 3.375 C2.539375 4.57125 2.76625 5.7675 3 7 C3.99 7.66 4.98 8.32 6 9 C4.02 9 2.04 9 0 9 C0 6.03 0 3.06 0 0 Z " fill="#664ED5" transform="translate(108,138)"/>
<path d="M0 0 C-0.33 1.65 -0.66 3.3 -1 5 C-1.33 4.34 -1.66 3.68 -2 3 C-4.12576782 2.53348793 -4.12576782 2.53348793 -6.5625 2.375 C-7.38878906 2.30023438 -8.21507812 2.22546875 -9.06640625 2.1484375 C-9.70449219 2.09945312 -10.34257813 2.05046875 -11 2 C-11 1.67 -11 1.34 -11 1 C-3.375 0 -3.375 0 0 0 Z " fill="#50367F" transform="translate(59,129)"/>
<path d="M0 0 C-0.33 1.32 -0.66 2.64 -1 4 C-2.65 4.33 -4.3 4.66 -6 5 C-6 3.68 -6 2.36 -6 1 C-3 0 -3 0 0 0 Z " fill="#4C327F" transform="translate(102,118)"/>
<path d="M0 0 C-0.1875 1.875 -0.1875 1.875 -1 4 C-3.4375 5.3125 -3.4375 5.3125 -6 6 C-6.66 5.67 -7.32 5.34 -8 5 C-2.25 0 -2.25 0 0 0 Z " fill="#FEF1DA" transform="translate(157,85)"/>
<path d="M0 0 C0 0.33 0 0.66 0 1 C-4.29 1.99 -8.58 2.98 -13 4 C-13.33 3.01 -13.66 2.02 -14 1 C-9.27685687 0.22887459 -4.78478822 -0.09764874 0 0 Z " fill="#361671" transform="translate(44,132)"/>
<path d="M0 0 C0 0.99 0 1.98 0 3 C-2.64 3.99 -5.28 4.98 -8 6 C-8.66 5.34 -9.32 4.68 -10 4 C-6.7 2.68 -3.4 1.36 0 0 Z " fill="#EBE2F9" transform="translate(104,110)"/>
<path d="M0 0 C0.99 0.33 1.98 0.66 3 1 C-1.455 3.97 -1.455 3.97 -6 7 C-6 6.01 -6 5.02 -6 4 C-3.1875 1.75 -3.1875 1.75 0 0 Z " fill="#F7E6ED" transform="translate(138,92)"/>
<path d="M0 0 C0.66 0 1.32 0 2 0 C1.49287967 3.71888239 0.88391785 6.73454239 -1 10 C-1.66 8.02 -2.32 6.04 -3 4 C-2.01 4 -1.02 4 0 4 C0 2.68 0 1.36 0 0 Z " fill="#6A54BD" transform="translate(67,92)"/>
<path d="M0 0 C0.99 0.66 1.98 1.32 3 2 C1.02 3.32 -0.96 4.64 -3 6 C-3.66 5.67 -4.32 5.34 -5 5 C-3.35 3.35 -1.7 1.7 0 0 Z " fill="#5A439D" transform="translate(51,141)"/>
<path d="M0 0 C-0.99 1.485 -0.99 1.485 -2 3 C-5.125 3.1875 -5.125 3.1875 -8 3 C-7.34 2.67 -6.68 2.34 -6 2 C-6 1.34 -6 0.68 -6 0 C-3 -1 -3 -1 0 0 Z " fill="#3E1B87" transform="translate(93,123)"/>
<path d="M0 0 C1 3 1 3 0.25 5.625 C-1 8 -1 8 -4 9 C-3.67 7.35 -3.34 5.7 -3 4 C-2.34 4 -1.68 4 -1 4 C-0.67 2.68 -0.34 1.36 0 0 Z " fill="#8A70DE" transform="translate(83,88)"/>
<path d="M0 0 C1 2 1 2 0.25 4.5 C-1 7 -1 7 -4 9 C-3.46930939 5.17902761 -2.50298434 2.93828597 0 0 Z " fill="#4B2492" transform="translate(94,58)"/>
<path d="M0 0 C0.94875 0.04125 1.8975 0.0825 2.875 0.125 C2.25625 0.558125 1.6375 0.99125 1 1.4375 C-1.3447245 3.12240483 -1.3447245 3.12240483 -3.125 6.125 C-3.125 5.135 -3.125 4.145 -3.125 3.125 C-3.785 2.795 -4.445 2.465 -5.125 2.125 C-3.125 0.125 -3.125 0.125 0 0 Z " fill="#EBDBE7" transform="translate(116.125,109.875)"/>
<path d="M0 0 C0.99 0 1.98 0 3 0 C3 1.32 3 2.64 3 4 C3.66 4.33 4.32 4.66 5 5 C3.35 5.33 1.7 5.66 0 6 C0 4.02 0 2.04 0 0 Z " fill="#6448D1" transform="translate(39,104)"/>
<path d="M0 0 C-1.98611612 1.98611612 -3.44143249 2.91454712 -6 4 C-6.99 4 -7.98 4 -9 4 C-9 3.34 -9 2.68 -9 2 C-3.375 -1.125 -3.375 -1.125 0 0 Z " fill="#ECCAA7" transform="translate(118,108)"/>
<path d="M0 0 C0.66 0.33 1.32 0.66 2 1 C2 1.66 2 2.32 2 3 C-0.64738916 4.4606285 -1.89448334 5 -5 5 C-5 4.34 -5 3.68 -5 3 C-2.625 1.3125 -2.625 1.3125 0 0 Z " fill="#EEB98D" transform="translate(130,99)"/>
<path d="M0 0 C0.99 0.99 1.98 1.98 3 3 C1.1875 4.5625 1.1875 4.5625 -1 6 C-1.99 5.67 -2.98 5.34 -4 5 C-2.68 3.35 -1.36 1.7 0 0 Z " fill="#EB8737" transform="translate(161,76)"/>
<path d="M0 0 C0.66 0.33 1.32 0.66 2 1 C1.75 2.875 1.75 2.875 1 5 C-1.0625 6.25 -1.0625 6.25 -3 7 C-1.125 1.125 -1.125 1.125 0 0 Z " fill="#A68CD5" transform="translate(91,56)"/>
</svg>
